# xmcd CD database file
# Copyright (C) 1996 Ti Kan
#
# Track frame offsets:
#  187
#  12712
#  25912
#  37987
#  62250
#  83250
#  96637
#  104962
#  125137
#  140812
#  154500
#  170775
#  188512
#
# Disc length: 2666 seconds
#
# Revision: 2
# Processed by: cddbd v1.4PL0 Copyright (c) Steve Scherf et al.
# Submitted via: Gronk 1.4
#
DISCID=b10a680d
DTITLE=Johnny Shines - Hey Ba-Ba-Re-Bop!
DYEAR=1900
DGENRE=blues
TTITLE0=Sweet Home Chicago
TTITLE1=Delta Pines
TTITLE2=Kind Hearted Woman
TTITLE3=I Will Be Kind
TTITLE4=When Your Troubles Get Like Mine
TTITLE5=Milk Cow Blues
TTITLE6=Hey, Ba-Ba-Re Bop
TTITLE7=Saddle My Pony
TTITLE8=I Had A Good Home
TTITLE9=Terraplane Blues
TTITLE10=Mean Mistreater
TTITLE11=Going To The River
TTITLE12=Do Like The Lord Say Do
EXTD=Rounder CD 2020\n\nSubmitted 6/30/97\n[Jmccoy@efn.org]
EXTT0=
EXTT1=
EXTT2=
EXTT3=
EXTT4=
EXTT5=
EXTT6=
EXTT7=
EXTT8=
EXTT9=
EXTT10=
EXTT11=
EXTT12=
PLAYORDER=
